<svg viewBox="0 0 295 308" xmlns="http://www.w3.org/2000/svg" xmlns:xlink="http://www.w3.org/1999/xlink" width="295.000000" height="308.000000" fill="none" customFrame="#000000">
	<path id="Subtract" d="M0 268L0 80C0 57.9086 17.9086 40 40 40L89 40C102.807 40 114 28.8071 114 15C114 8.37423 118.465 0 125.091 0L255 0C277.091 0 295 17.9086 295 40L295 268C295 290.091 277.091 308 255 308L40 308C17.9086 308 0 290.091 0 268ZM2 80L2 268Q2 272.303 2.92452 276.397L2.92486 276.399Q3.66165 279.661 4.98541 282.791C6.90821 287.337 9.62305 291.363 13.1299 294.87Q15.9306 297.671 19.173 299.798L19.1735 299.798Q22.021 301.666 25.2093 303.015C29.9148 305.005 34.8451 306 40 306L255 306C260.155 306 265.085 305.005 269.791 303.015C274.337 301.092 278.363 298.377 281.87 294.87C285.377 291.363 288.092 287.337 290.015 282.791C292.005 278.085 293 273.155 293 268L293 40C293 34.8451 292.005 29.9148 290.015 25.2093Q288.666 22.0214 286.798 19.1741L286.798 19.1736L286.791 19.1629Q284.666 15.9261 281.87 13.1299C278.363 9.62305 274.337 6.90821 269.791 4.98541Q266.66 3.66135 263.397 2.92452Q259.303 2 255 2L125.091 2C122.677 2 120.555 3.37447 118.726 6.12342C116.909 8.85389 116 11.8127 116 15Q116 20.5919 114.023 25.3649Q112.046 30.1378 108.092 34.0919Q104.138 38.0459 99.3649 40.0229Q94.5919 42 89 42L40 42Q35.6972 42 31.6032 42.9244Q28.3399 43.6613 25.2093 44.9854Q22.0212 46.3339 19.1739 48.2017L19.1738 48.2017L19.1737 48.2018L19.1715 48.2032Q15.9299 50.33 13.1299 53.1299Q10.3289 55.931 8.2016 59.1739Q6.33382 62.0213 4.9854 65.2093Q3.66133 68.3398 2.9245 71.6028L2.92445 71.6031Q2 75.6971 2 80Z" fill="rgb(92,53,208)" fill-rule="evenodd" />
</svg>
