<svg viewBox="0 0 295 264" xmlns="http://www.w3.org/2000/svg" xmlns:xlink="http://www.w3.org/1999/xlink" width="295.000000" height="264.000000" fill="none" customFrame="#000000">
	<path id="Subtract" d="M0 224L0 80C0 57.9086 17.9086 40 40 40L138 40C151.807 40 163 28.8071 163 15C163 8.37423 167.465 0 174.091 0L255 0C277.091 0 295 17.9086 295 40L295 224C295 246.091 277.091 264 255 264L40 264C17.9086 264 0 246.091 0 224ZM2 80L2 224Q2 228.303 2.92434 232.396L2.92444 232.397L2.92577 232.403Q3.66249 235.663 4.98541 238.791C6.90821 243.337 9.62305 247.363 13.1299 250.87C16.6368 254.377 20.6633 257.092 25.2093 259.015C29.9148 261.005 34.8451 262 40 262L255 262C260.155 262 265.085 261.005 269.791 259.015C274.337 257.092 278.363 254.377 281.87 250.87C285.377 247.363 288.092 243.337 290.015 238.791C292.005 234.085 293 229.155 293 224L293 40C293 34.8451 292.005 29.9148 290.015 25.2093Q288.666 22.0214 286.798 19.1741L286.798 19.1736L286.791 19.1629Q284.666 15.9261 281.87 13.1299C278.363 9.62305 274.337 6.90821 269.791 4.98541Q266.66 3.66135 263.397 2.92452Q259.303 2 255 2L174.091 2Q173.445 2 172.826 2.13137L172.826 2.13151L172.825 2.13158Q169.98 2.73666 167.726 6.12342C165.909 8.85388 165 11.8127 165 15C165 22.4559 162.364 28.8198 157.092 34.0919C151.82 39.364 145.456 42 138 42L40 42Q35.6972 42 31.6032 42.9244Q28.3399 43.6613 25.2093 44.9854Q22.0212 46.3339 19.1739 48.2017L19.1738 48.2017L19.1737 48.2018L19.1715 48.2032Q15.9299 50.33 13.1299 53.1299Q10.3289 55.931 8.2016 59.1739Q6.33382 62.0213 4.9854 65.2093Q3.66133 68.3398 2.9245 71.6028L2.92445 71.6031Q2 75.6971 2 80Z" fill="rgb(92,53,208)" fill-rule="evenodd" />
</svg>
