<svg viewBox="0 0 295 224" xmlns="http://www.w3.org/2000/svg" xmlns:xlink="http://www.w3.org/1999/xlink" width="295.000000" height="224.000000" fill="none" customFrame="#000000">
	<path id="Subtract" d="M0 184L0 81C0 58.9086 17.9086 41 40 41L132.5 41C146.583 41 158 29.5833 158 15.5C158 8.68507 162.597 0 169.412 0L255 0C277.091 0 295 17.9086 295 40L295 184C295 206.091 277.091 224 255 224L40 224C17.9086 224 0 206.091 0 184ZM2 81L2 184Q2 188.303 2.92434 192.396L2.92444 192.397L2.92577 192.403Q3.66249 195.663 4.98541 198.791C6.90821 203.337 9.62305 207.363 13.1299 210.87Q15.9308 213.671 19.1735 215.798Q22.021 217.666 25.2093 219.015C29.9148 221.005 34.8451 222 40 222L255 222C260.155 222 265.085 221.005 269.791 219.015C274.337 217.092 278.363 214.377 281.87 210.87C285.377 207.363 288.092 203.337 290.015 198.791C292.005 194.085 293 189.155 293 184L293 40C293 34.8451 292.005 29.9148 290.015 25.2093Q288.666 22.0214 286.798 19.1741L286.798 19.1736L286.791 19.1629Q284.666 15.9261 281.87 13.1299C278.363 9.62305 274.337 6.90821 269.791 4.98541Q266.66 3.66135 263.397 2.92452Q259.303 2 255 2L169.412 2Q168.755 2 168.125 2.13224L168.124 2.13239L168.124 2.13246Q165.164 2.75455 162.818 6.29834C160.939 9.13659 160 12.2038 160 15.5Q160 21.1953 157.986 26.0566L157.986 26.0569Q155.973 30.9183 151.945 34.9454C146.576 40.3151 140.094 43 132.5 43L40 43Q35.6972 43 31.6032 43.9244Q28.3399 44.6613 25.2093 45.9854Q22.0212 47.3339 19.1739 49.2017L19.1738 49.2017L19.1737 49.2018L19.1715 49.2032Q15.9299 51.33 13.1299 54.1299Q10.3289 56.931 8.2016 60.1739Q6.33382 63.0213 4.9854 66.2093Q3.66133 69.3398 2.9245 72.6028L2.92445 72.6031Q2 76.6971 2 81Z" fill="rgb(92,53,208)" fill-rule="evenodd" />
</svg>
