<svg viewBox="0 0 295 369" xmlns="http://www.w3.org/2000/svg" xmlns:xlink="http://www.w3.org/1999/xlink" width="295.000000" height="369.000000" fill="none" customFrame="#000000">
	<path id="Subtract" d="M0 329L0 80C0 57.9086 17.9086 40 40 40L120 40C133.807 40 145 28.8071 145 15C145 8.37423 149.465 0 156.091 0L255 0C277.091 0 295 17.9086 295 40L295 329C295 351.091 277.091 369 255 369L40 369C17.9086 369 0 351.091 0 329ZM2 80L2 329Q2 333.303 2.92452 337.397L2.92486 337.399Q3.66165 340.661 4.98541 343.791C6.90821 348.337 9.62305 352.363 13.1299 355.87Q15.9306 358.671 19.173 360.798L19.1735 360.798Q22.021 362.666 25.2093 364.015C29.9148 366.005 34.8451 367 40 367L255 367C260.155 367 265.085 366.005 269.791 364.015C274.337 362.092 278.363 359.377 281.87 355.87C285.377 352.363 288.092 348.337 290.015 343.791C292.005 339.085 293 334.155 293 329L293 40C293 34.8451 292.005 29.9148 290.015 25.2093Q288.666 22.0214 286.798 19.1741L286.798 19.1736L286.791 19.1629Q284.666 15.9261 281.87 13.1299C278.363 9.62305 274.337 6.90821 269.791 4.98541Q266.66 3.66135 263.397 2.92452Q259.303 2 255 2L156.091 2Q155.445 2 154.826 2.13137L154.826 2.13151L154.825 2.13158Q151.98 2.73666 149.726 6.12342C147.909 8.85388 147 11.8127 147 15C147 22.4559 144.364 28.8198 139.092 34.0919Q135.138 38.0459 130.365 40.023Q125.592 42 120 42L40 42Q35.6972 42 31.6032 42.9244Q28.3399 43.6613 25.2093 44.9854Q22.0212 46.3339 19.1739 48.2017L19.1738 48.2017L19.1737 48.2018L19.1715 48.2032Q15.9299 50.33 13.1299 53.1299Q10.3289 55.931 8.2016 59.1739Q6.33382 62.0213 4.9854 65.2093Q3.66133 68.3398 2.9245 71.6028L2.92445 71.6031Q2 75.6971 2 80Z" fill="rgb(92,53,208)" fill-rule="evenodd" />
</svg>
