<svg viewBox="0 0 49 46" xmlns="http://www.w3.org/2000/svg" xmlns:xlink="http://www.w3.org/1999/xlink" width="49.000000" height="46.000000" fill="none" customFrame="#000000">
	<path id="Vector" d="M23.0582 1.39187C17.0868 7.62064 0.315987 25.6172 0.17291 25.9498C-0.0676232 26.5088 -0.0551932 27.602 0.197638 28.1257C0.523065 28.7995 8.21735 36.9349 8.77762 37.1975C9.44501 37.5102 10.2844 37.4841 10.9379 37.1304C11.261 36.9554 12.4381 35.8061 13.8678 34.2696C15.7705 32.2247 16.2577 31.6272 16.2577 31.3385C16.2577 31.0477 15.946 30.6735 14.6797 29.4444C13.3221 28.1265 13.0591 27.9256 12.7954 28.0042C12.6269 28.0546 11.9237 28.6746 11.2328 29.3823C9.56666 31.0885 9.45929 31.0873 7.80861 29.345C6.76463 28.243 6.47094 27.6973 6.4753 26.8678C6.47953 26.0436 6.86883 25.3403 7.9501 24.2025C8.48287 23.6419 10.4701 21.5479 12.3662 19.549C14.2621 17.5501 18.4192 13.1678 21.6038 9.81043C24.7885 6.45309 27.4489 3.56451 27.5159 3.39128C27.7224 2.85741 27.4109 2.28819 26.2682 1.11051C24.7889 -0.414027 24.7895 -0.414157 23.0582 1.39187ZM30.8034 8.66628C30.2589 8.92307 28.8703 10.2828 25.514 13.8454C21.9406 17.6387 16.0776 24.0462 15.8065 24.4548L15.5725 24.8073L16.273 25.5594C18.3443 27.7825 18.6728 28.0658 19.1795 28.0658C19.579 28.0658 19.7504 27.9705 20.1748 27.5122C30.9295 15.8995 30.4526 16.3443 32.1375 16.3523C33.5758 16.359 33.6934 16.4557 38.6884 21.7382C43.4116 26.7334 43.5375 26.8989 43.1982 27.6677C43.1084 27.871 41.6812 29.4245 40.0267 31.1199C37.0666 34.1531 37.0184 34.2115 37.0184 34.7555C37.0184 35.4508 37.307 35.8234 38.2267 36.3154C39.1424 36.8052 40.234 36.835 41.158 36.3953C41.9869 36.001 47.9948 29.7144 48.5888 28.6199C49.115 27.6503 49.1379 26.4577 48.6477 25.5439C48.1924 24.6952 33.4479 8.94205 32.8438 8.65887C32.2553 8.3831 31.3973 8.38622 30.8034 8.66628ZM29.0986 24.0046C28.3949 24.6736 14.7035 39.2453 13.6461 40.4508C13.2666 40.8834 13.2163 41.0299 13.2163 41.7042C13.2163 42.3942 13.2654 42.5284 13.7245 43.0967C14.4273 43.9667 15.4117 44.8313 15.6928 44.8258C16.1572 44.8166 16.5277 44.4582 19.287 41.3485C20.8277 39.6122 22.2381 38.1355 22.4214 38.0671C22.9012 37.8878 23.6195 37.914 24.0369 38.126C24.2353 38.2269 24.8922 38.8699 25.4963 39.5547C26.1005 40.2396 26.7637 40.9181 26.9699 41.0625C27.1762 41.2069 28.1901 42.2745 29.2229 43.435C31.4848 45.9766 31.5107 46 32.0722 46C32.5638 46 32.8132 45.8058 34.0212 44.4831C34.8991 43.5217 35.1262 42.9174 34.9086 42.123C34.7793 41.6508 34.2473 41.0603 31.2707 38.0843C27.6055 34.4198 27.4949 34.2747 27.5018 33.1341C27.5068 32.2996 27.937 31.7225 30.4838 29.1351C31.8716 27.7249 33.0826 26.4326 33.1747 26.263C33.4374 25.7801 33.2448 25.2553 32.4933 24.4063C31.6719 23.478 31.2858 23.2573 30.4829 23.2573C29.9341 23.2573 29.82 23.3189 29.0986 24.0046Z" fill="rgb(62,43,135)" fill-rule="evenodd" />
</svg>
