<svg width="50" height="50" viewBox="0 0 50 50" fill="none" xmlns="http://www.w3.org/2000/svg">
<path fill-rule="evenodd" clip-rule="evenodd" d="M25.0001 8.3335C26.7813 8.3335 28.6084 8.37933 30.3792 8.45433L32.4709 8.55433L34.473 8.67308L36.348 8.80016L38.0605 8.9335C39.9192 9.07494 41.6684 9.86773 43 11.1722C44.3316 12.4768 45.1601 14.2093 45.3397 16.0647L45.423 16.9502L45.5792 18.846C45.7251 20.8106 45.8334 22.9522 45.8334 25.0002C45.8334 27.0481 45.7251 29.1897 45.5792 31.1543L45.423 33.0502L45.3397 33.9356C45.16 35.7913 44.3312 37.5241 42.9992 38.8287C41.6672 40.1333 39.9175 40.9259 38.0584 41.0668L36.3501 41.1981L34.4751 41.3272L32.4709 41.446L30.3792 41.546C28.5872 41.6236 26.7938 41.6639 25.0001 41.6668C23.2064 41.6639 21.4129 41.6236 19.6209 41.546L17.5292 41.446L15.5272 41.3272L13.6522 41.1981L11.9397 41.0668C10.0809 40.9254 8.33175 40.1326 7.00017 38.8281C5.6686 37.5236 4.84006 35.791 4.6605 33.9356L4.57716 33.0502L4.42091 31.1543C4.26223 29.1067 4.17746 27.0539 4.16675 25.0002C4.16675 22.9522 4.27508 20.8106 4.42091 18.846L4.57716 16.9502L4.6605 16.0647C4.83999 14.2096 5.66823 12.4774 6.99938 11.1729C8.33053 9.86841 10.0792 9.07541 11.9376 8.9335L13.648 8.80016L15.523 8.67308L17.5272 8.55433L19.6188 8.45433C21.4115 8.37668 23.2057 8.33639 25.0001 8.3335ZM20.8334 19.9481V30.0522C20.8334 31.0147 21.8751 31.6147 22.7084 31.1356L31.4584 26.0835C31.6488 25.9739 31.807 25.816 31.9169 25.6259C32.0269 25.4357 32.0848 25.2199 32.0848 25.0002C32.0848 24.7805 32.0269 24.5647 31.9169 24.3745C31.807 24.1843 31.6488 24.0264 31.4584 23.9168L22.7084 18.8668C22.5183 18.7571 22.3027 18.6993 22.0832 18.6994C21.8637 18.6994 21.6481 18.7572 21.4581 18.867C21.268 18.9768 21.1102 19.1347 21.0006 19.3249C20.8909 19.515 20.8333 19.7307 20.8334 19.9502V19.9481Z" fill="#EEF0FD"/>
</svg>
