<svg viewBox="0 0 50 50" xmlns="http://www.w3.org/2000/svg" xmlns:xlink="http://www.w3.org/1999/xlink" width="50.000000" height="50.000000" fill="none">
	<rect id="Button" width="50.000000" height="50.000000" x="0.000000" y="0.000000" fill="rgb(255,255,255)" fill-opacity="0" />
	<path id="Vector" d="M8.875 8.875C6.25 11.525 6.25 15.7625 6.25 24.25L6.25 25.75C6.25 34.225 6.25 38.4625 8.875 41.125C11.525 43.75 15.7625 43.75 24.25 43.75L25.75 43.75C34.225 43.75 38.4625 43.75 41.125 41.125C43.75 38.475 43.75 34.2375 43.75 25.75L43.75 24.25C43.75 15.775 43.75 11.5375 41.125 8.875C38.475 6.25 34.2375 6.25 25.75 6.25L24.25 6.25C15.775 6.25 11.5375 6.25 8.875 8.875ZM12.575 17.6625L16.875 17.6625C17.0125 24.8125 20.1625 27.8375 22.6625 28.4625L22.6625 17.6625L26.7 17.6625L26.7 23.825C29.1625 23.5625 31.7625 20.75 32.6375 17.65L36.6625 17.65C36.3341 19.2546 35.6784 20.7743 34.7364 22.1142C33.7944 23.4541 32.5863 24.5854 31.1875 25.4375C32.7488 26.2143 34.1277 27.3134 35.233 28.6622C36.3384 30.0111 37.1451 31.579 37.6 33.2625L33.1625 33.2625C32.2125 30.3 29.8375 28 26.7 27.6875L26.7 33.2625L26.2 33.2625C17.65 33.2625 12.775 27.4125 12.575 17.6625Z" fill="rgb(238,240,253)" fill-rule="nonzero" />
</svg>
