<svg viewBox="0 0 60.0005 59.9995" xmlns="http://www.w3.org/2000/svg" xmlns:xlink="http://www.w3.org/1999/xlink" width="60.000488" height="59.999535" fill="none" customFrame="url(#clipPath_0)">
	<defs>
		<clipPath id="clipPath_0">
			<rect width="60.000465" height="59.999535" x="0.000000" y="0.000000" rx="29.999767" fill="rgb(255,255,255)" />
		</clipPath>
	</defs>
	<rect id="Switch" width="60.000465" height="59.999535" x="0.000000" y="0.000000" rx="29.999767" fill="rgb(223,224,252)" />
	<path id="Vector" d="M30.0365 47.9995C24.993 47.9995 20.7263 46.254 17.2366 42.7629C13.7469 39.2718 12.0013 35.0052 12 29.963C12 25.3537 13.503 21.3535 16.5091 17.9627C19.5152 14.5718 23.3563 12.5931 28.0325 12.0266C28.4667 11.9598 28.8508 12.0186 29.1848 12.203C29.5188 12.3874 29.786 12.6292 29.9864 12.9285C30.1868 13.2277 30.2957 13.5785 30.3131 13.9806C30.3305 14.3828 30.2049 14.7669 29.9363 15.1329C29.3685 16.0014 28.9423 16.9199 28.6578 17.8885C28.3732 18.8572 28.2316 19.8759 28.2329 20.9447C28.2329 23.9508 29.285 26.506 31.3893 28.6102C33.4935 30.7145 36.0487 31.7666 39.0548 31.7666C40.0902 31.7666 41.1177 31.6163 42.1371 31.3157C43.1565 31.0151 44.0663 30.5976 44.8666 30.0632C45.234 29.8294 45.6101 29.7212 45.9949 29.7385C46.3797 29.7559 46.7217 29.8474 47.021 30.0131C47.355 30.1801 47.6142 30.4306 47.7985 30.7646C47.9829 31.0986 48.041 31.4994 47.9729 31.967C47.5053 36.5764 45.5433 40.4008 42.087 43.4403C38.6306 46.4798 34.6138 47.9995 30.0365 47.9995Z" fill="rgb(38,26,76)" fill-rule="nonzero" />
</svg>
