<svg viewBox="0 0 61 61.0026" xmlns="http://www.w3.org/2000/svg" xmlns:xlink="http://www.w3.org/1999/xlink" width="61.000000" height="61.002617" fill="none" customFrame="url(#clipPath_0)">
	<defs>
		<clipPath id="clipPath_0">
			<rect width="61.000000" height="61.002621" x="0.000000" y="0.000000" rx="30.000000" fill="rgb(255,255,255)" />
		</clipPath>
		<clipPath id="clipPath_1">
			<rect width="61.000000" height="61.002621" x="0.000000" y="0.000000" rx="27.281851" fill="rgb(255,255,255)" />
		</clipPath>
	</defs>
	<rect id="Property 1=Active" width="61.000000" height="61.002621" x="0.000000" y="0.000000" rx="30.000000" fill="rgb(255,255,255)" />
	<g id="Switch" customFrame="url(#clipPath_1)">
		<rect id="Switch" width="61.000000" height="61.002621" x="0.000000" y="0.000000" rx="27.281851" fill="rgb(223,224,252)" />
		<path id="Vector" d="M30.5003 47.0801C31.0804 47.0802 31.6402 47.2932 32.0737 47.6786C32.5072 48.0641 32.7841 48.5952 32.852 49.1713L32.8686 49.4483L32.8686 51.8166C32.8679 52.4202 32.6368 53.0007 32.2224 53.4397C31.808 53.8786 31.2417 54.1427 30.6391 54.1781C30.0366 54.2135 29.4432 54.0174 28.9803 53.63C28.5175 53.2426 28.22 52.693 28.1487 52.0936L28.1321 51.8166L28.1321 49.4483C28.1321 48.8203 28.3816 48.2179 28.8258 47.7738C29.2699 47.3296 29.8722 47.0801 30.5003 47.0801ZM45.4509 42.1306L45.6735 42.3271L47.3312 43.9849C47.756 44.4111 48.0026 44.9829 48.0209 45.5843C48.0393 46.1857 47.8281 46.7716 47.4301 47.2229C47.0322 47.6742 46.4774 47.9571 45.8784 48.0142C45.2794 48.0712 44.6812 47.8981 44.2052 47.5301L43.9826 47.3335L42.3248 45.6758C41.9162 45.2678 41.6706 44.7246 41.6344 44.1483C41.5982 43.572 41.7738 43.0023 42.1282 42.5464C42.4825 42.0905 42.9913 41.7797 43.5587 41.6726C44.1261 41.5655 44.7131 41.6694 45.2093 41.9648L45.4509 42.1306ZM18.6758 42.3271C19.0836 42.7349 19.3285 43.2775 19.3647 43.853C19.4009 44.4285 19.2259 44.9975 18.8724 45.4532L18.6758 45.6758L17.0181 47.3335C16.5919 47.7583 16.02 48.0049 15.4186 48.0232C14.8172 48.0416 14.2314 47.8303 13.7801 47.4324C13.3288 47.0345 13.0459 46.4797 12.9888 45.8807C12.9317 45.2817 13.1048 44.6835 13.4729 44.2075L13.6694 43.9849L15.3272 42.3271C15.7713 41.8831 16.3735 41.6337 17.0015 41.6337C17.6295 41.6337 18.2317 41.8831 18.6758 42.3271ZM11.5546 28.1344C12.1582 28.1351 12.7388 28.3662 13.1777 28.7806C13.6166 29.1949 13.8808 29.7613 13.9161 30.3638C13.9515 30.9664 13.7555 31.5597 13.368 32.0226C12.9806 32.4855 12.4311 32.783 11.8317 32.8543L11.5546 32.8708L9.18639 32.8708C8.58278 32.8702 8.00221 32.639 7.56329 32.2247C7.12438 31.8103 6.86025 31.244 6.82487 30.6414C6.7895 30.0388 6.98555 29.4455 7.37297 28.9826C7.76038 28.5197 8.30993 28.2223 8.90931 28.151L9.18639 28.1344L11.5546 28.1344ZM51.8143 28.1344C52.4179 28.1351 52.9985 28.3662 53.4374 28.7806C53.8763 29.1949 54.1404 29.7613 54.1758 30.3638C54.2112 30.9664 54.0151 31.5597 53.6277 32.0226C53.2403 32.4855 52.6907 32.783 52.0914 32.8543L51.8143 32.8708L49.4461 32.8708C48.8425 32.8702 48.2619 32.639 47.823 32.2247C47.3841 31.8103 47.1199 31.244 47.0845 30.6414C47.0492 30.0388 47.2452 29.4455 47.6326 28.9826C48.0201 28.5197 48.5696 28.2223 49.169 28.151L49.4461 28.1344L51.8143 28.1344ZM16.7955 13.4751L17.0181 13.6717L18.6758 15.3295C19.1006 15.7556 19.3472 16.3275 19.3655 16.9289C19.3839 17.5303 19.1727 18.1162 18.7747 18.5675C18.3768 19.0188 17.822 19.3017 17.223 19.3587C16.624 19.4158 16.0258 19.2427 15.5498 18.8747L15.3272 18.6781L13.6694 17.0204C13.2623 16.6123 13.018 16.0697 12.9823 15.4944C12.9466 14.919 13.122 14.3504 13.4756 13.8952C13.8292 13.4399 14.3367 13.1292 14.903 13.0214C15.4692 12.9135 16.0554 13.0159 16.5515 13.3094L16.7955 13.4751ZM47.3312 13.6717C47.739 14.0795 47.9839 14.6221 48.0201 15.1976C48.0563 15.7731 47.8813 16.3421 47.5278 16.7978L47.3312 17.0204L45.6735 18.6781C45.2473 19.1028 44.6754 19.3494 44.074 19.3678C43.4726 19.3862 42.8868 19.1749 42.4355 18.777C41.9842 18.3791 41.7013 17.8243 41.6442 17.2253C41.5872 16.6263 41.7602 16.0281 42.1283 15.5521L42.3248 15.3295L43.9826 13.6717C44.4267 13.2277 45.0289 12.9783 45.6569 12.9783C46.2849 12.9783 46.8871 13.2277 47.3312 13.6717ZM30.5003 6.82046C31.0804 6.82053 31.6402 7.03349 32.0737 7.41894C32.5072 7.80439 32.7841 8.33552 32.852 8.91159L32.8686 9.18867L32.8686 11.5569C32.8679 12.1605 32.6368 12.7411 32.2224 13.18C31.808 13.6189 31.2417 13.883 30.6391 13.9184C30.0366 13.9538 29.4432 13.7577 28.9803 13.3703C28.5175 12.9829 28.22 12.4334 28.1487 11.834L28.1321 11.5569L28.1321 9.18867C28.1321 8.56058 28.3816 7.95822 28.8258 7.51409C29.2699 7.06997 29.8722 6.82046 30.5003 6.82046ZM30.5003 18.6615C32.8204 18.6614 35.0894 19.3428 37.0255 20.6212C38.9617 21.8996 40.4796 23.7186 41.3907 25.8523C42.3019 27.986 42.5662 30.3403 42.1507 32.6229C41.7353 34.9055 40.6584 37.0158 39.0539 38.6916C37.4494 40.3674 35.388 41.5349 33.1256 42.0492C30.8632 42.5634 28.4996 42.4017 26.3283 41.5841C24.1571 40.7665 22.2738 39.3291 20.9125 37.4504C19.5512 35.5717 18.7718 33.3344 18.6711 31.0165L18.6593 30.5026L18.6711 29.9887C18.8035 26.9402 20.1077 24.0605 22.3116 21.9502C24.5155 19.8398 27.449 18.6617 30.5003 18.6615Z" fill="rgb(38,26,76)" fill-rule="nonzero" />
	</g>
</svg>
